<svg width="18" height="18" viewBox="0 0 18 18" fill="none" xmlns="http://www.w3.org/2000/svg">
<mask id="mask0_3077_62810" style="mask-type:alpha" maskUnits="userSpaceOnUse" x="0" y="0" width="18" height="18">
<rect width="18" height="18" fill="#D9D9D9"/>
</mask>
<g mask="url(#mask0_3077_62810)">
<path d="M6.75 13.5029C6.3375 13.5029 5.98438 13.3561 5.69063 13.0623C5.39688 12.7686 5.25 12.4154 5.25 12.0029V3.00293C5.25 2.59043 5.39688 2.2373 5.69063 1.94355C5.98438 1.6498 6.3375 1.50293 6.75 1.50293H13.5C13.9125 1.50293 14.2656 1.6498 14.5594 1.94355C14.8531 2.2373 15 2.59043 15 3.00293V12.0029C15 12.4154 14.8531 12.7686 14.5594 13.0623C14.2656 13.3561 13.9125 13.5029 13.5 13.5029H6.75ZM6.75 12.0029H13.5V3.00293H6.75V12.0029ZM3.75 16.5029C3.3375 16.5029 2.98438 16.3561 2.69063 16.0623C2.39688 15.7686 2.25 15.4154 2.25 15.0029V5.25293C2.25 5.04043 2.32188 4.86231 2.46563 4.71856C2.60938 4.57481 2.7875 4.50293 3 4.50293C3.2125 4.50293 3.39063 4.57481 3.53438 4.71856C3.67813 4.86231 3.75 5.04043 3.75 5.25293V15.0029H11.25C11.4625 15.0029 11.6406 15.0748 11.7844 15.2186C11.9281 15.3623 12 15.5404 12 15.7529C12 15.9654 11.9281 16.1436 11.7844 16.2873C11.6406 16.4311 11.4625 16.5029 11.25 16.5029H3.75Z" fill="#303030"/>
</g>
</svg>
