<svg width="18" height="18" viewBox="0 0 18 18" fill="none" xmlns="http://www.w3.org/2000/svg">
<mask id="mask0_3077_62856" style="mask-type:alpha" maskUnits="userSpaceOnUse" x="0" y="0" width="18" height="18">
<rect width="18" height="18" fill="#D9D9D9"/>
</mask>
<g mask="url(#mask0_3077_62856)">
<path d="M8.99961 11.2123C8.89961 11.2123 8.80586 11.1967 8.71836 11.1654C8.63086 11.1342 8.54961 11.0811 8.47461 11.0061L5.02461 7.55605C4.88711 7.41855 4.81836 7.24355 4.81836 7.03105C4.81836 6.81855 4.88711 6.64355 5.02461 6.50605C5.16211 6.36855 5.33711 6.2998 5.54961 6.2998C5.76211 6.2998 5.93711 6.36855 6.07461 6.50605L8.99961 9.43106L11.9246 6.50605C12.0621 6.36855 12.2371 6.2998 12.4496 6.2998C12.6621 6.2998 12.8371 6.36855 12.9746 6.50605C13.1121 6.64355 13.1809 6.81855 13.1809 7.03105C13.1809 7.24355 13.1121 7.41855 12.9746 7.55605L9.52461 11.0061C9.44961 11.0811 9.36836 11.1342 9.28086 11.1654C9.19336 11.1967 9.09961 11.2123 8.99961 11.2123Z" fill="#5E5E5E"/>
</g>
</svg>
