<svg width="10" height="10" viewBox="0 0 10 10" fill="none" xmlns="http://www.w3.org/2000/svg">
<path d="M8 7.35V8.25C8 8.31667 8.025 8.375 8.075 8.425C8.125 8.475 8.18333 8.5 8.25 8.5C8.31667 8.5 8.375 8.475 8.425 8.425C8.475 8.375 8.5 8.31667 8.5 8.25V6.75C8.5 6.68333 8.475 6.625 8.425 6.575C8.375 6.525 8.31667 6.5 8.25 6.5H6.75C6.68333 6.5 6.625 6.525 6.575 6.575C6.525 6.625 6.5 6.68333 6.5 6.75C6.5 6.81667 6.525 6.875 6.575 6.925C6.625 6.975 6.68333 7 6.75 7H7.65L6.425 8.225C6.375 8.275 6.35 8.33333 6.35 8.4C6.35 8.46667 6.375 8.525 6.425 8.575C6.475 8.625 6.53333 8.65 6.6 8.65C6.66667 8.65 6.725 8.625 6.775 8.575L8 7.35ZM1 9C0.725 9 0.489583 8.90208 0.29375 8.70625C0.0979167 8.51042 0 8.275 0 8V1C0 0.725 0.0979167 0.489583 0.29375 0.29375C0.489583 0.0979167 0.725 0 1 0H8C8.275 0 8.51042 0.0979167 8.70625 0.29375C8.90208 0.489583 9 0.725 9 1V3.5C9 3.64167 8.95208 3.76042 8.85625 3.85625C8.76042 3.95208 8.64167 4 8.5 4C8.35833 4 8.23958 3.95208 8.14375 3.85625C8.04792 3.76042 8 3.64167 8 3.5V1H1V8H3.5C3.64167 8 3.76042 8.04792 3.85625 8.14375C3.95208 8.23958 4 8.35833 4 8.5C4 8.64167 3.95208 8.76042 3.85625 8.85625C3.76042 8.95208 3.64167 9 3.5 9H1ZM1 8V1V4.0375V4V8ZM2 6.5C2 6.64167 2.04792 6.76042 2.14375 6.85625C2.23958 6.95208 2.35833 7 2.5 7H3.5375C3.67917 7 3.79792 6.95208 3.89375 6.85625C3.98958 6.76042 4.0375 6.64167 4.0375 6.5C4.0375 6.35833 3.98958 6.23958 3.89375 6.14375C3.79792 6.04792 3.67917 6 3.5375 6H2.5C2.35833 6 2.23958 6.04792 2.14375 6.14375C2.04792 6.23958 2 6.35833 2 6.5ZM2 4.5C2 4.64167 2.04792 4.76042 2.14375 4.85625C2.23958 4.95208 2.35833 5 2.5 5H5C5.14167 5 5.26042 4.95208 5.35625 4.85625C5.45208 4.76042 5.5 4.64167 5.5 4.5C5.5 4.35833 5.45208 4.23958 5.35625 4.14375C5.26042 4.04792 5.14167 4 5 4H2.5C2.35833 4 2.23958 4.04792 2.14375 4.14375C2.04792 4.23958 2 4.35833 2 4.5ZM2 2.5C2 2.64167 2.04792 2.76042 2.14375 2.85625C2.23958 2.95208 2.35833 3 2.5 3H6.5C6.64167 3 6.76042 2.95208 6.85625 2.85625C6.95208 2.76042 7 2.64167 7 2.5C7 2.35833 6.95208 2.23958 6.85625 2.14375C6.76042 2.04792 6.64167 2 6.5 2H2.5C2.35833 2 2.23958 2.04792 2.14375 2.14375C2.04792 2.23958 2 2.35833 2 2.5ZM7.5 10C6.80833 10 6.21875 9.75625 5.73125 9.26875C5.24375 8.78125 5 8.19167 5 7.5C5 6.80833 5.24375 6.21875 5.73125 5.73125C6.21875 5.24375 6.80833 5 7.5 5C8.19167 5 8.78125 5.24375 9.26875 5.73125C9.75625 6.21875 10 6.80833 10 7.5C10 8.19167 9.75625 8.78125 9.26875 9.26875C8.78125 9.75625 8.19167 10 7.5 10Z" fill="white"/>
</svg>
