<svg width="9" height="7" viewBox="0 0 9 7" fill="none" xmlns="http://www.w3.org/2000/svg">
<path d="M2.9745 4.93594L7.74169 0.16875C7.85419 0.05625 7.98544 0 8.13544 0C8.28544 0 8.41669 0.05625 8.52919 0.16875C8.64169 0.28125 8.69794 0.414844 8.69794 0.569531C8.69794 0.724219 8.64169 0.857813 8.52919 0.970313L3.36825 6.14531C3.25575 6.25781 3.1245 6.31406 2.9745 6.31406C2.8245 6.31406 2.69325 6.25781 2.58075 6.14531L0.162 3.72656C0.0495 3.61406 -0.00440625 3.48047 0.00028125 3.32578C0.00496875 3.17109 0.0635625 3.0375 0.176062 2.925C0.288562 2.8125 0.422156 2.75625 0.576844 2.75625C0.731531 2.75625 0.865125 2.8125 0.977625 2.925L2.9745 4.93594Z" fill="white"/>
</svg>
